<mxfile host="app.diagrams.net" modified="2023-10-27T07:04:26.052Z" agent="Mozilla/5.0 (Macintosh; Intel Mac OS X 10_15_7) AppleWebKit/537.36 (KHTML, like Gecko) Chrome/118.0.0.0 Safari/537.36 Edg/118.0.2088.69" version="22.0.8" etag="IDPGZ3qSGPHpBUQEEA_o" type="github">
  <diagram name="第 1 页" id="By7ZtAecfSqQDFca6SJz">
    <mxGraphModel>
      <root>
        <mxCell id="0" />
        <mxCell id="1" parent="0" />
      </root>
    </mxGraphModel>
  </diagram>
</mxfile>
